<svg width="48" height="48" viewBox="0 0 48 48" fill="none" xmlns="http://www.w3.org/2000/svg">
<path d="M17.5244 0.5H28.9355C33.9418 0.5 37.9734 4.41033 37.9736 9.20312V9.62695C37.9736 11.641 36.2829 13.3008 34.1533 13.3008H33.0283C31.5197 13.3007 30.3252 12.1218 30.3252 10.7119C30.325 8.71633 28.6498 7.12402 26.6211 7.12402H17.8672C16.3842 7.12402 15.24 7.12298 14.3252 7.19531C13.5201 7.25898 12.8588 7.38103 12.2695 7.62598L12.0244 7.7373C10.9329 8.2672 10.0381 9.1311 9.46973 10.2031L9.46875 10.2041C9.1359 10.8386 8.98219 11.5502 8.90723 12.4414C8.83283 13.3262 8.83301 14.4328 8.83301 15.8672V17.2529C8.83301 18.8033 8.82882 19.675 9.02051 20.4043L9.02441 20.415C9.30529 21.3889 9.83664 22.2723 10.5664 22.9756C11.2961 23.6788 12.1982 24.1771 13.1816 24.4219C13.9254 24.6118 14.8281 24.6084 16.4326 24.6084H19.4316C21.432 24.6084 23.0332 26.1664 23.0332 28.0635C23.0331 29.9619 21.4311 31.5318 19.417 31.5244L16.042 31.5156L13.3623 31.502C11.0319 31.4726 9.6677 31.3767 8.54297 31.0254C5.39735 30.0426 2.98746 27.7116 1.98828 24.6924L1.9873 24.6904C1.50644 23.2534 1.5 21.4252 1.5 17.5195V15.9385C1.5 13.3012 1.50065 11.3523 1.62012 9.80664C1.73903 8.26813 1.9736 7.16949 2.4209 6.22559C3.45927 4.06921 5.23547 2.35578 7.42773 1.39551L7.42969 1.39453C8.41509 0.959059 9.5614 0.731409 11.1621 0.616211C12.7675 0.500675 14.7906 0.5 17.5244 0.5Z" stroke="black"/>
<path d="M18.8706 47.8936H30.2842C35.7374 47.8936 38.4609 47.8936 40.5812 46.9565C42.8825 45.9509 44.748 44.155 45.8404 41.8936C46.8108 39.8484 46.8108 37.2146 46.8108 31.9555V30.3736C46.8108 26.5169 46.8108 24.5864 46.2974 23.0525C45.2456 19.8658 42.7099 17.4198 39.4167 16.3931C37.8264 15.8964 35.8063 15.8964 31.7617 15.888L28.3955 15.8797C26.1207 15.8713 24.2779 17.6494 24.2779 19.8344C24.2779 22.0195 26.1207 23.7955 28.3788 23.7955H31.3798C33.0181 23.7955 33.8424 23.7955 34.5103 23.9666C35.41 24.1856 36.2352 24.64 36.9013 25.2833C37.5673 25.9266 38.0501 26.7356 38.3002 27.6271C38.4797 28.272 38.4797 29.063 38.4797 30.6428V32.0369C38.4797 34.9148 38.4797 36.3569 37.9016 37.4588C37.3829 38.4371 36.5665 39.225 35.5704 39.7085C34.4289 40.272 32.9284 40.272 29.9377 40.272H21.1767C19.407 40.272 17.9816 38.8946 17.9816 37.1833C17.9816 35.472 16.5478 34.0946 14.7781 34.0946H13.6532C11.2637 34.0946 9.33322 35.9625 9.33322 38.2685V38.7005C9.33322 43.7802 13.5969 47.8957 18.8706 47.8957V47.8936Z" fill="black"/>
</svg>
